<svg width="44" height="45" viewBox="0 0 44 45" fill="none" xmlns="http://www.w3.org/2000/svg">
<circle cx="22" cy="22.5196" r="22" fill="white"/>
<g clip-path="url(#clip0_32_55)">
<path d="M23.7928 22.5196C23.7928 26.9275 20.2437 30.5008 15.866 30.5008C11.4883 30.5008 7.93896 26.9275 7.93896 22.5196C7.93896 18.1117 11.488 14.5381 15.866 14.5381C20.244 14.5381 23.7928 18.1117 23.7928 22.5196Z" fill="#FF4B00"/>
<path d="M32.4886 22.5196C32.4886 26.6687 30.714 30.0335 28.525 30.0335C26.336 30.0335 24.5615 26.6687 24.5615 22.5196C24.5615 18.3705 26.3358 15.0057 28.5248 15.0057C30.7138 15.0057 32.4883 18.3694 32.4883 22.5196" fill="#FF4B00"/>
<path d="M36.0455 22.5196C36.0455 26.2361 35.4215 29.2509 34.6515 29.2509C33.8815 29.2509 33.2578 26.237 33.2578 22.5196C33.2578 18.8022 33.8818 15.7883 34.6515 15.7883C35.4212 15.7883 36.0455 18.802 36.0455 22.5196Z" fill="#FF4B00"/>
</g>
<defs>
<clipPath id="clip0_32_55">
<rect width="44" height="30.985" fill="white" transform="translate(0 7)"/>
</clipPath>
</defs>
</svg>
