<svg width="44" height="44" viewBox="0 0 44 44" fill="none" xmlns="http://www.w3.org/2000/svg">
<circle cx="22" cy="22" r="22" fill="white"/>
<g clip-path="url(#clip0_107_204)">
<path d="M31.5451 13.0944C29.765 12.2615 27.8616 11.6562 25.8717 11.3115C25.6273 11.7534 25.3417 12.3477 25.1449 12.8204C23.0295 12.5023 20.9336 12.5023 18.8572 12.8204C18.6603 12.3477 18.3683 11.7534 18.1218 11.3115C16.1297 11.6562 14.2241 12.2637 12.444 13.0988C8.85344 18.5245 7.88011 23.8155 8.36678 29.0314C10.7482 30.8098 13.0561 31.8901 15.325 32.597C15.8852 31.826 16.3849 31.0064 16.8153 30.1426C15.9955 29.8311 15.2104 29.4467 14.4685 29.0005C14.6653 28.8547 14.8579 28.7022 15.0439 28.5454C19.5688 30.6618 24.4852 30.6618 28.9561 28.5454C29.1442 28.7022 29.3367 28.8547 29.5314 29.0005C28.7873 29.4489 28 29.8333 27.1803 30.1448C27.6107 31.0064 28.1082 31.8282 28.6705 32.5992C30.9417 31.8923 33.2517 30.812 35.6331 29.0314C36.2042 22.9849 34.6576 17.7425 31.5451 13.0944ZM17.4318 25.8237C16.0734 25.8237 14.9595 24.5556 14.9595 23.0114C14.9595 21.4671 16.0496 20.1969 17.4318 20.1969C18.8139 20.1969 19.9278 21.4649 19.904 23.0114C19.9062 24.5556 18.8139 25.8237 17.4318 25.8237ZM26.5681 25.8237C25.2098 25.8237 24.0959 24.5556 24.0959 23.0114C24.0959 21.4671 25.186 20.1969 26.5681 20.1969C27.9503 20.1969 29.0642 21.4649 29.0404 23.0114C29.0404 24.5556 27.9503 25.8237 26.5681 25.8237Z" fill="#FF4B00"/>
</g>
<defs>
<clipPath id="clip0_107_204">
<rect width="27.5" height="27.5" fill="white" transform="translate(8.25 8.25)"/>
</clipPath>
</defs>
</svg>
