<svg width="44" height="44" viewBox="0 0 44 44" fill="none" xmlns="http://www.w3.org/2000/svg">
<g clip-path="url(#clip0_107_194)">
<circle cx="21.9999" cy="21.9999" r="17.6" fill="#FF4B00"/>
<path d="M22 25.8673C24.1312 25.8673 25.8758 24.1313 25.8758 21.9915C25.8758 21.1493 25.6008 20.3673 25.1453 19.7313C24.4406 18.7603 23.2976 18.1157 22.0086 18.1157C20.7195 18.1157 19.5765 18.7517 18.8719 19.7313C18.4164 20.3673 18.1414 21.1493 18.1414 21.9915C18.1328 24.1313 19.8687 25.8673 22 25.8673Z" fill="white"/>
<path d="M30.4562 17.2648V14.0164V13.5352H29.975L26.7266 13.5438L26.7437 17.2734L30.4562 17.2648Z" fill="white"/>
<path d="M28.0156 21.9999C28.0156 25.3171 25.3172 28.0155 22 28.0155C18.6828 28.0155 15.9844 25.3171 15.9844 21.9999C15.9844 21.2007 16.1477 20.4358 16.4312 19.7397H13.1484V28.746C13.1484 29.9062 14.0937 30.8515 15.2539 30.8515H28.7461C29.9062 30.8515 30.8516 29.9062 30.8516 28.746V19.7397H27.5687C27.8609 20.4358 28.0156 21.2007 28.0156 21.9999Z" fill="white"/>
<path d="M22 0C9.84844 0 0 9.84844 0 22C0 34.1516 9.84844 44 22 44C34.1516 44 44 34.1516 44 22C44 9.84844 34.1516 0 22 0ZM33 19.7398V28.7461C33 31.0922 31.0922 33 28.7461 33H15.2539C12.9078 33 11 31.0922 11 28.7461V19.7398V15.2453C11 12.8992 12.9078 10.9914 15.2539 10.9914H28.7461C31.0922 10.9914 33 12.8992 33 15.2453V19.7398Z" fill="white"/>
</g>
<defs>
<clipPath id="clip0_107_194">
<rect width="44" height="44" fill="white"/>
</clipPath>
</defs>
</svg>
