<svg width="44" height="44" viewBox="0 0 44 44" fill="none" xmlns="http://www.w3.org/2000/svg">
<g clip-path="url(#clip0_107_201)">
<circle cx="21.9999" cy="21.9999" r="17.6" fill="#FF4B00"/>
<path d="M22 0C9.84844 0 0 9.84844 0 22C0 34.1516 9.84844 44 22 44C34.1516 44 44 34.1516 44 22C44 9.84844 34.1516 0 22 0ZM30.7828 18.5797C30.7914 18.7688 30.7914 18.9664 30.7914 19.1641C30.7914 25.1367 26.2453 32.0289 17.9266 32.0289C15.3742 32.0289 12.9937 31.2812 11 30.0008C11.3523 30.0438 11.7133 30.0609 12.0828 30.0609C14.1969 30.0609 16.1477 29.3391 17.6945 28.1273C15.718 28.093 14.0422 26.7867 13.475 24.9906C13.75 25.0422 14.0336 25.068 14.3258 25.068C14.7383 25.068 15.1422 25.0164 15.5203 24.9047C13.4492 24.4922 11.8937 22.6617 11.8937 20.4703V20.4188C12.5039 20.7539 13.2 20.9602 13.9391 20.9859C12.7273 20.1781 11.9281 18.7859 11.9281 17.2219C11.9281 16.3969 12.1516 15.6148 12.5383 14.9445C14.7727 17.6859 18.0984 19.482 21.8539 19.6711C21.7766 19.3445 21.7336 19.0008 21.7336 18.6398C21.7336 16.1477 23.7617 14.1195 26.2539 14.1195C27.5516 14.1195 28.7289 14.6695 29.5539 15.5461C30.5852 15.3398 31.5477 14.9703 32.4242 14.4461C32.0891 15.5031 31.3672 16.3883 30.4391 16.9469C31.35 16.8352 32.2266 16.5945 33.0344 16.2336C32.4328 17.1445 31.668 17.9352 30.7828 18.5797Z" fill="white"/>
</g>
<defs>
<clipPath id="clip0_107_201">
<rect width="44" height="44" fill="white"/>
</clipPath>
</defs>
</svg>
